<?xml version="1.0" encoding="utf-8"?>
<!-- Generator: Adobe Illustrator 19.0.0, SVG Export Plug-In . SVG Version: 6.00 Build 0)  -->
<!DOCTYPE svg PUBLIC "-//W3C//DTD SVG 1.1//EN" "http://www.w3.org/Graphics/SVG/1.1/DTD/svg11.dtd">
<svg version="1.1" id="レイヤー_1" xmlns="http://www.w3.org/2000/svg" xmlns:xlink="http://www.w3.org/1999/xlink" x="0px"
	 y="0px" viewBox="0 0 259 357" style="enable-background:new 0 0 259 357;" xml:space="preserve">
<style type="text/css">
	.st0{fill:#E34E4B;}
	.st1{fill:#FFFFFF;}
	.st2{opacity:0.2;}
</style>
<path id="XMLID_101_" class="st0" d="M198.1508942,0H0v357h259V60.8046989L198.1508942,0z"/>
<g>
	<g>
		<path id="path4463_1_" class="st1" d="M104.1737976,183.5507965c4.3315964-8.4888,9.2538986-18.0527954,13.1918945-27.6567993l0,0
			l1.5620041-3.793396c-5.1473999-19.5805969-8.233902-35.3013-5.4760056-45.4624023l0,0
			c0.7402039-2.6532974,3.8105011-4.2597961,7.0922012-4.2597961l0,0l1.9981079,0.0292969h0.3681946
			c4.4901962-0.0688019,6.6084061,5.6455002,6.8485947,7.8676987l0,0c0.3955078,3.6992035-1.3179016,9.9624023-1.3179016,9.9624023
			l0,0c0-2.5292969,0.1001129-6.6172028-1.4970932-10.142601l0,0c-1.8563995-4.078598-3.6297913-6.5156021-5.2220993-6.9032974l0,0
			c-0.8056946,0.5375977-1.5859985,1.6483994-1.8530045,3.7860947l0,0
			c-0.5527954,2.9971008-0.7164001,6.7793045-0.7164001,8.7290039l0,0c0,6.8901978,1.3521042,15.9828949,4.0171051,25.3583984l0,0
			c0.5054016-1.4515991,0.9487991-2.8462067,1.301796-4.152298l0,0c0.5434036-2.0601044,4.0225067-15.7118988,4.0225067-15.7118988
			l0,0c0,0-0.8775024,18.171402-2.1011047,23.6698914l0,0c-0.2608032,1.1616058-0.5531998,2.3110046-0.8535004,3.4873047l0,0
			c4.3955078,12.2812042,11.4790039,23.2451019,19.9291992,31.1356964l0,0
			c3.3334961,3.1133118,7.5404968,5.6231079,11.5229034,7.9131012l0,0
			c8.6968079-1.2440948,16.7061005-1.8300934,23.3858032-1.7577972l0,0
			c8.8617859,0.1161957,15.3695984,1.4286957,18.0028992,4.0225067l0,0
			c1.2885895,1.2616882,1.8129883,2.7850952,1.9765015,4.4940948l0,0c0.0366974,0.6651001-0.2876129,2.2245941-0.3798065,2.6143036
			l0,0c0.0921936-0.4717102,0.0921936-2.8047028-7.019104-5.0742035l0,0
			c-5.6040039-1.7929993-16.0941925-1.7364044-28.6747894-0.3955994l0,0
			c14.5541992,7.1201935,28.7348938,10.6573029,33.2294922,8.535202l0,0
			c1.0962067-0.535202,2.4297028-2.3594055,2.4297028-2.3594055l0,0c0,0-0.7929993,3.597702-1.3618011,4.4971008l0,0
			c-0.7250977,0.9785004-2.1488953,2.0381012-3.4980927,2.3936005l0,0
			c-7.0962067,1.8945007-25.5722046-2.4893036-41.6777039-11.6894989l0,0
			c-17.9911957,2.648407-37.75,7.5429993-53.5932999,12.7411957l0,0
			c-15.5649033,27.2774048-27.2679977,39.8057098-36.7856026,35.0391083l0,0l-3.5028992-1.7588043
			c-1.4203987-0.8144989-1.639698-2.7940063-1.3091011-4.4082031l0,0
			c1.108902-5.4306946,7.9175034-13.6083984,21.5970993-21.7753906l0,0
			c1.4702988-0.8906097,8.0289001-4.3594055,8.0289001-4.3594055l0,0c0,0-4.8535995,4.6992035-5.9912949,5.6210938l0,0
			c-10.9184036,8.9453125-18.975502,20.2012024-18.7753029,24.5664062l0,0l0.0395012,0.3789062
			C72.3856964,237.4111023,86.2948914,218.5341949,104.1737976,183.5507965 M109.8422928,186.4521027
			c-2.98629,5.6259918-5.908699,10.8388977-8.6020966,15.6279907l0,0
			c14.9048004-6.2450867,30.9511948-10.2421875,46.2237015-13.0820923l0,0
			c-2.0518036-1.4188995-4.0458984-2.9188995-5.9179993-4.5039062l0,0
			c-8.410202-7.1210938-14.8257065-16.0072937-19.4731064-25.3529968l0,0
			C119.1283951,167.0829926,115.6205978,175.5200043,109.8422928,186.4521027"/>
	</g>
	<path class="st1" d="M117.8026962,224.0742035h10.1983109c3.0336914,0,5.3583832,0.8945923,6.9716797,2.6835938
		c1.6289062,1.7754059,2.4428101,4.3096008,2.4428101,7.6083984c0,3.3096008-0.8139038,5.8583984-2.4428101,7.648407
		c-1.6132965,1.7744904-3.9379883,2.6631012-6.9716797,2.6622009h-4.0513153v10.9461975h-6.1469955V224.0742035
		 M123.9496918,229.9707031v8.8096008h3.3993988c1.1890106,0,2.108902-0.3789062,2.7608032-1.1407013
		c0.6479034-0.7743988,0.9721069-1.8652039,0.9721069-3.2752991c0-1.4082031-0.3242035-2.4922028-0.9721069-3.2548981
		c-0.6519012-0.7598114-1.5717926-1.1387024-2.7608032-1.1387024H123.9496918 M147.8798981,230.2207031v19.2519989h2.2064972
		c2.5092926,0,4.4228973-0.8222961,5.7431946-2.4716949c1.328598-1.6475067,1.9932098-4.0440063,1.9932098-7.1826019
		c0-3.1289062-0.6597137-5.5088043-1.9771118-7.1455078c-1.3158875-1.6329041-3.2421875-2.4521942-5.7592926-2.4521942H147.8798981
		 M141.7411957,224.0742035h6.4761047c3.6185913,0,6.3125,0.3457031,8.0731964,1.0361938
		c1.7769012,0.6766968,3.2978973,1.8281097,4.5673981,3.4638062c1.1156921,1.4257965,1.9447937,3.066391,2.4888,4.9247894
		c0.5399933,1.8604126,0.8119965,3.9658051,0.8119965,6.3194122c0,2.3807983-0.2720032,4.5086975-0.8119965,6.378891
		c-0.5440063,1.8592987-1.3731079,3.5028992-2.4888,4.9248047c-1.277298,1.6347046-2.8144073,2.7958984-4.5962067,3.4873047
		c-1.7894897,0.6757965-4.4701996,1.0135956-8.0443878,1.0135956h-6.4761047V224.0742035 M168.8661957,224.0742035h16.578598
		v6.1493988h-10.4349976v5.8759918H184.8237v6.1464996h-9.8139038v13.3769073h-6.1436005V224.0742035"/>
</g>
<polygon class="st2" points="258.3632812,61 198,61 198,0.5918 "/>
</svg>
