<?xml version="1.0" encoding="utf-8"?>
<!-- Generator: Adobe Illustrator 19.0.0, SVG Export Plug-In . SVG Version: 6.00 Build 0)  -->
<!DOCTYPE svg PUBLIC "-//W3C//DTD SVG 1.1//EN" "http://www.w3.org/Graphics/SVG/1.1/DTD/svg11.dtd">
<svg version="1.1" id="レイヤー_1" xmlns="http://www.w3.org/2000/svg" xmlns:xlink="http://www.w3.org/1999/xlink" x="0px"
	 y="0px" viewBox="-399.3 592 43.3 8.5" style="enable-background:new -399.3 592 43.3 8.5;" xml:space="preserve">
<style type="text/css">
	.st0{fill:#FFFFFF;}
</style>
<g>
	<path class="st0" d="M-390.6,592.1h-1.6c-0.1,0-0.3,0.1-0.3,0.3v0.7c-0.7-0.6-1.6-0.9-2.6-0.9c-2.3,0-4.1,1.9-4.1,4.1
		s1.9,4.1,4.1,4.1c1,0,1.9-0.3,2.6-0.9v0.7c0,0.1,0.1,0.3,0.3,0.3h1.6c0.1,0,0.3-0.1,0.3-0.3v-7.8
		C-390.3,592.2-390.4,592.1-390.6,592.1z M-395,598.3c-1.1,0-2.1-0.9-2.1-2.1s0.9-2.1,2.1-2.1c1.1,0,2.1,0.9,2.1,2.1
		S-393.8,598.3-395,598.3z"/>
	<path class="st0" d="M-373.5,592.1h-1.6c-0.1,0-0.3,0.1-0.3,0.3v0.7c-0.7-0.6-1.6-0.9-2.6-0.9c-2.3,0-4.1,1.9-4.1,4.1
		s1.9,4.1,4.1,4.1c1,0,1.9-0.3,2.6-0.9v0.7c0,0.1,0.1,0.3,0.3,0.3h1.6c0.1,0,0.3-0.1,0.3-0.3v-7.8
		C-373.2,592.2-373.3,592.1-373.5,592.1z M-377.9,598.3c-1.1,0-2.1-0.9-2.1-2.1s0.9-2.1,2.1-2.1c1.1,0,2.1,0.9,2.1,2.1
		S-376.7,598.3-377.9,598.3z"/>
	<path class="st0" d="M-356.4,592.1h-1.6c-0.1,0-0.3,0.1-0.3,0.3v0.7c-0.7-0.6-1.6-0.9-2.6-0.9c-2.3,0-4.1,1.9-4.1,4.1
		s1.9,4.1,4.1,4.1c1,0,1.9-0.3,2.6-0.9v0.7c0,0.1,0.1,0.3,0.3,0.3h1.6c0.1,0,0.3-0.1,0.3-0.3v-7.8
		C-356.1,592.2-356.2,592.1-356.4,592.1z M-360.8,598.3c-1.1,0-2.1-0.9-2.1-2.1s0.9-2.1,2.1-2.1c1.1,0,2.1,0.9,2.1,2.1
		S-359.6,598.3-360.8,598.3z"/>
	<path class="st0" d="M-383.6,592.1c-0.8,0-1.5,0.2-2.1,0.6v-0.3c0-0.1-0.1-0.3-0.3-0.3h-1.6c-0.1,0-0.3,0.1-0.3,0.3v7.8
		c0,0.1,0.1,0.3,0.3,0.3h1.6c0.1,0,0.3-0.1,0.3-0.3v-3.9c0-1.1,0.9-2.1,2.1-2.1c0.1,0,0.3-0.1,0.3-0.3v-1.6
		C-383.3,592.1-383.4,592.1-383.6,592.1z"/>
	<path class="st0" d="M-366.5,592.1c-0.8,0-1.5,0.2-2.1,0.6v-0.3c0-0.1-0.1-0.3-0.3-0.3h-1.6c-0.1,0-0.3,0.1-0.3,0.3v7.8
		c0,0.1,0.1,0.3,0.3,0.3h1.6c0.1,0,0.3-0.1,0.3-0.3v-3.9c0-1.1,0.9-2.1,2.1-2.1c0.1,0,0.3-0.1,0.3-0.3v-1.6
		C-366.2,592.1-366.3,592.1-366.5,592.1z"/>
</g>
</svg>
