<?xml version="1.0" encoding="utf-8"?>
<!-- Generator: Adobe Illustrator 19.0.0, SVG Export Plug-In . SVG Version: 6.00 Build 0)  -->
<!DOCTYPE svg PUBLIC "-//W3C//DTD SVG 1.1//EN" "http://www.w3.org/Graphics/SVG/1.1/DTD/svg11.dtd">
<svg version="1.1" id="レイヤー_1" xmlns="http://www.w3.org/2000/svg" xmlns:xlink="http://www.w3.org/1999/xlink" x="0px"
	 y="0px" viewBox="-436.3 522.4 117.6 150.4" style="enable-background:new -436.3 522.4 117.6 150.4;" xml:space="preserve">
<style type="text/css">
	.st0{fill:#262626;}
</style>
<path class="st0" d="M-322.1,522.4h-20.8c-1.9,0-3.5,1.6-3.5,3.5v8.7c-9.5-7.6-21.5-12.2-34.6-12.2c-30.6,0-55.4,24.8-55.4,55.4
	c0,30.6,24.8,55.4,55.4,55.4c13.1,0,25.1-4.6,34.6-12.2v8.7c0,1.9,1.6,3.5,3.5,3.5h20.8c1.9,0,3.5-1.6,3.5-3.5V525.9
	C-318.7,524-320.2,522.4-322.1,522.4z M-381,605.5c-15.3,0-27.7-12.4-27.7-27.7c0-15.3,12.4-27.7,27.7-27.7
	c15.3,0,27.7,12.4,27.7,27.7C-353.3,593.1-365.7,605.5-381,605.5z"/>
<g>
	<path class="st0" d="M-412.9,650.2h-4.3c-0.4,0-0.7,0.3-0.7,0.7v1.8c-1.9-1.6-4.4-2.5-7.1-2.5c-6.3,0-11.3,5.1-11.3,11.3
		c0,6.3,5.1,11.3,11.3,11.3c2.7,0,5.1-0.9,7.1-2.5v1.8c0,0.4,0.3,0.7,0.7,0.7h4.3c0.4,0,0.7-0.3,0.7-0.7v-21.3
		C-412.2,650.5-412.5,650.2-412.9,650.2z M-425,667.2c-3.1,0-5.7-2.5-5.7-5.7s2.5-5.7,5.7-5.7c3.1,0,5.7,2.5,5.7,5.7
		S-421.8,667.2-425,667.2z"/>
	<path class="st0" d="M-366.2,650.2h-4.3c-0.4,0-0.7,0.3-0.7,0.7v1.8c-1.9-1.6-4.4-2.5-7.1-2.5c-6.3,0-11.3,5.1-11.3,11.3
		c0,6.3,5.1,11.3,11.3,11.3c2.7,0,5.1-0.9,7.1-2.5v1.8c0,0.4,0.3,0.7,0.7,0.7h4.3c0.4,0,0.7-0.3,0.7-0.7v-21.3
		C-365.4,650.5-365.8,650.2-366.2,650.2z M-378.2,667.2c-3.1,0-5.7-2.5-5.7-5.7s2.5-5.7,5.7-5.7c3.1,0,5.7,2.5,5.7,5.7
		S-375.1,667.2-378.2,667.2z"/>
	<path class="st0" d="M-319.4,650.2h-4.3c-0.4,0-0.7,0.3-0.7,0.7v1.8c-1.9-1.6-4.4-2.5-7.1-2.5c-6.3,0-11.3,5.1-11.3,11.3
		c0,6.3,5.1,11.3,11.3,11.3c2.7,0,5.1-0.9,7.1-2.5v1.8c0,0.4,0.3,0.7,0.7,0.7h4.3c0.4,0,0.7-0.3,0.7-0.7v-21.3
		C-318.7,650.5-319,650.2-319.4,650.2z M-331.4,667.2c-3.1,0-5.7-2.5-5.7-5.7s2.5-5.7,5.7-5.7c3.1,0,5.7,2.5,5.7,5.7
		S-328.3,667.2-331.4,667.2z"/>
	<path class="st0" d="M-393.8,650.2c-2.1,0-4,0.6-5.7,1.5v-0.8c0-0.4-0.3-0.7-0.7-0.7h-4.3c-0.4,0-0.7,0.3-0.7,0.7v21.3
		c0,0.4,0.3,0.7,0.7,0.7h4.3c0.4,0,0.7-0.3,0.7-0.7v-10.6c0-3.1,2.5-5.7,5.7-5.7c0.4,0,0.7-0.3,0.7-0.7v-4.4
		C-393.1,650.3-393.4,650.2-393.8,650.2z"/>
	<path class="st0" d="M-347,650.2c-2.1,0-4,0.6-5.7,1.5v-0.8c0-0.4-0.3-0.7-0.7-0.7h-4.3c-0.4,0-0.7,0.3-0.7,0.7v21.3
		c0,0.4,0.3,0.7,0.7,0.7h4.3c0.4,0,0.7-0.3,0.7-0.7v-10.6c0-3.1,2.5-5.7,5.7-5.7c0.4,0,0.7-0.3,0.7-0.7v-4.4
		C-346.3,650.3-346.6,650.2-347,650.2z"/>
</g>
</svg>
